<svg width="326.29750976562497px" height="258.807470703125px" xmlns="http://www.w3.org/2000/svg" viewBox="86.85124511718752 -54.40373535156249 326.29750976562497 258.807470703125" style="background: none;" preserveAspectRatio="xMidYMid"><defs><filter id="editing-metal-beveled"><feGaussianBlur stdDeviation="4" in="SourceAlpha" result="blur"></feGaussianBlur><feSpecularLighting surfaceScale="5" specularConstant="0.8" specularExponent="7.5" lighting-color="#eb7532" in="blur" result="specular"><fePointLight x="-250" y="-50" z="300"></fePointLight></feSpecularLighting><feComposite operator="in" in="specular" in2="SourceAlpha" result="comp"></feComposite><feComposite in="SourceGraphic" in2="comp" operator="arithmetic" k1="0" k2="1" k3="1" k4="0"></feComposite></filter></defs><g filter="url(#editing-metal-beveled)"><g transform="translate(135.85000467300415, 119.25)"><path d="M75.50-18.20L75.50-18.20Q77-18.80 78-18.80L78-18.80L78-18.80Q79.60-18.80 80.40-17.60L80.40-17.60L80.40-17.60Q81.20-16.40 81.20-14.50L81.20-14.50L81.20-14.50Q81.20-11.50 79.75-9.40L79.75-9.40L79.75-9.40Q78.30-7.30 74.80-5.60L74.80-5.60L74.80-5.60Q68.90-2.80 59.50-1.15L59.50-1.15L59.50-1.15Q50.10 0.50 41 0.50L41 0.50L41 0.50Q28.40 0.50 19.90-2.35L19.90-2.35L19.90-2.35Q11.40-5.20 7.25-10.20L7.25-10.20L7.25-10.20Q3.10-15.20 3.10-21.50L3.10-21.50L3.10-21.50Q3.10-30.10 8.65-36.15L8.65-36.15L8.65-36.15Q14.20-42.20 25-44.90L25-44.90L25-44.90Q19.10-46.60 15.95-50.90L15.95-50.90L15.95-50.90Q12.80-55.20 12.80-60.50L12.80-60.50L12.80-60.50Q12.80-67.70 17.35-73.25L17.35-73.25L17.35-73.25Q21.90-78.80 29.60-81.80L29.60-81.80L29.60-81.80Q37.30-84.80 46.50-84.80L46.50-84.80L46.50-84.80Q58.90-84.80 65.10-79.45L65.10-79.45L65.10-79.45Q71.30-74.10 71.30-65.60L71.30-65.60L71.30-65.60Q71.30-59.70 69.15-56.05L69.15-56.05L69.15-56.05Q67-52.40 63-52.40L63-52.40L63-52.40Q60.20-52.40 58.60-53.65L58.60-53.65L58.60-53.65Q57-54.90 57-57.40L57-57.40L57-57.40Q57-59.10 57.50-61.10L57.50-61.10L57.50-61.10Q58-64.40 58-65.60L58-65.60L58-65.60Q58-69.20 55.30-71.45L55.30-71.45L55.30-71.45Q52.60-73.70 46.30-73.70L46.30-73.70L46.30-73.70Q37.80-73.70 32.70-70.10L32.70-70.10L32.70-70.10Q27.60-66.50 27.60-60.40L27.60-60.40L27.60-60.40Q27.60-55.70 31.45-52.65L31.45-52.65L31.45-52.65Q35.30-49.60 44-49.30L44-49.30L44-49.30Q46.20-49.20 47.10-48.30L47.10-48.30L47.10-48.30Q48-47.40 48-45.30L48-45.30L48-45.30Q48-38.70 42-38.60L42-38.60L42-38.60Q33.70-38.40 28.25-36.30L28.25-36.30L28.25-36.30Q22.80-34.20 20.35-30.95L20.35-30.95L20.35-30.95Q17.90-27.70 17.90-24L17.90-24L17.90-24Q17.90-17.80 23.70-14.65L23.70-14.65L23.70-14.65Q29.50-11.50 42.10-11.50L42.10-11.50L42.10-11.50Q50.40-11.50 59.65-13.45L59.65-13.45L59.65-13.45Q68.90-15.40 75.50-18.20L75.50-18.20ZM166-22.30L166-22.30Q167.30-22.30 168.05-21.10L168.05-21.10L168.05-21.10Q168.80-19.90 168.80-17.80L168.80-17.80L168.80-17.80Q168.80-13.90 166.90-11.60L166.90-11.60L166.90-11.60Q157 0.50 145.80 0.50L145.80 0.50L145.80 0.50Q136.10 0.50 130.30-7L130.30-7L130.30-7Q124.50-14.50 124.50-28.50L124.50-28.50L124.50-28.50Q124.50-31.90 124.80-35.30L124.80-35.30L124.80-35.30Q118.20-34.10 110.40-33.50L110.40-33.50L110.40-33.50Q105.20-33.10 103.30-33L103.30-33L103.30-33Q101.30-22.80 97.70-8L97.70-8L97.70-8Q95.60 0.70 89.70 0.70L89.70 0.70L89.70 0.70Q83.30 0.70 83.30-5.10L83.30-5.10L83.30-5.10Q83.30-6.40 83.80-8.70L83.80-8.70L83.80-8.70Q87.20-22.40 89.20-31.90L89.20-31.90L84.40-31.70L84.40-31.70Q81.10-31.70 79.60-32.85L79.60-32.85L79.60-32.85Q78.10-34 78.10-36.60L78.10-36.60L78.10-36.60Q78.10-39.90 80.00-41.45L80.00-41.45L80.00-41.45Q81.90-43 86.30-43.20L86.30-43.20L91.60-43.40L91.60-43.40Q94.20-57.50 94.20-64.90L94.20-64.90L94.20-64.90Q94.20-69.60 92.80-71.30L92.80-71.30L92.80-71.30Q91.40-73 89.10-73L89.10-73L89.10-73Q82.10-73 73.30-61.30L73.30-61.30L73.30-61.30Q72.00-59.60 70.40-59.60L70.40-59.60L70.40-59.60Q69.00-59.60 68.00-60.90L68.00-60.90L68.00-60.90Q67.00-62.20 67.00-64.20L67.00-64.20L67.00-64.20Q67.00-67.30 69.50-70.80L69.50-70.80L69.50-70.80Q73.90-76.90 80.60-80.85L80.60-80.85L80.60-80.85Q87.30-84.80 94.20-84.80L94.20-84.80L94.20-84.80Q100.70-84.80 104.25-80.35L104.25-80.35L104.25-80.35Q107.80-75.90 107.80-66.50L107.80-66.50L107.80-66.50Q107.80-58.20 105.40-44L105.40-44L115.20-44.50L115.20-44.50Q121.50-44.80 126.00-45.50L126.00-45.50L126.00-45.50Q127.80-56.50 131.50-66.10L131.50-66.10L131.50-66.10Q135.20-75.70 140.70-81.70L140.70-81.70L140.70-81.70Q146.20-87.70 153-87.70L153-87.70L153-87.70Q158-87.70 160.90-83.75L160.90-83.75L160.90-83.75Q163.80-79.80 163.80-73.40L163.80-73.40L163.80-73.40Q163.80-48.60 138.50-39L138.50-39L138.50-39Q138.20-35 138.20-30.70L138.20-30.70L138.20-30.70Q138.20-20.20 140.80-15.80L140.80-15.80L140.80-15.80Q143.40-11.40 148.10-11.40L148.10-11.40L148.10-11.40Q152.20-11.40 155.60-13.55L155.60-13.55L155.60-13.55Q159-15.70 163.30-20.90L163.30-20.90L163.30-20.90Q164.50-22.30 166-22.30L166-22.30ZM152.50-79L152.50-79Q150.30-79 147.85-75L147.85-75L147.85-75Q145.40-71 143.20-64.10L143.20-64.10L143.20-64.10Q141-57.20 139.70-49L139.70-49L139.70-49Q147.70-52.30 151.50-58.40L151.50-58.40L151.50-58.40Q155.30-64.50 155.30-74.10L155.30-74.10L155.30-74.10Q155.30-76.40 154.50-77.70L154.50-77.70L154.50-77.70Q153.70-79 152.50-79L152.50-79ZM188.60 0.80L188.60 0.80Q175.30 0.80 167.30-4.25L167.30-4.25L167.30-4.25Q159.30-9.30 159.30-19.70L159.30-19.70L159.30-19.70Q159.30-25.20 161.20-28.10L161.20-28.10L161.20-28.10Q163.10-31 166.80-31L166.80-31L166.80-31Q169.50-31 171.20-29.60L171.20-29.60L171.20-29.60Q172.90-28.20 172.90-26L172.90-26L172.90-26Q172.90-24 172.60-22.50L172.60-22.50L172.60-22.50Q172.60-22.10 172.45-21.10L172.45-21.10L172.45-21.10Q172.30-20.10 172.30-19L172.30-19L172.30-19Q172.30-14.50 176.85-12.30L176.85-12.30L176.85-12.30Q181.40-10.10 189.60-10.10L189.60-10.10L189.60-10.10Q198.10-10.10 202.90-13.15L202.90-13.15L202.90-13.15Q207.70-16.20 207.70-21.70L207.70-21.70L207.70-21.70Q207.70-25.10 205.50-27.55L205.50-27.55L205.50-27.55Q203.30-30 200.00-31.65L200.00-31.65L200.00-31.65Q196.70-33.30 190.70-35.70L190.70-35.70L190.70-35.70Q183.00-38.70 178.15-41.40L178.15-41.40L178.15-41.40Q173.30-44.10 169.85-48.75L169.85-48.75L169.85-48.75Q166.40-53.40 166.40-60.30L166.40-60.30L166.40-60.30Q166.40-67.50 170.25-73.10L170.25-73.10L170.25-73.10Q174.10-78.70 181.35-81.80L181.35-81.80L181.35-81.80Q188.60-84.90 198.40-84.90L198.40-84.90L198.40-84.90Q205.70-84.90 211.80-82.75L211.80-82.75L211.80-82.75Q217.90-80.60 221.55-76.20L221.55-76.20L221.55-76.20Q225.20-71.80 225.20-65.40L225.20-65.40L225.20-65.40Q225.20-59.10 223.30-55.90L223.30-55.90L223.30-55.90Q221.40-52.70 217.70-52.70L217.70-52.70L217.70-52.70Q215.10-52.70 213.35-54.30L213.35-54.30L213.35-54.30Q211.60-55.90 211.60-58.10L211.60-58.10L211.60-58.10Q211.60-60 211.90-61.60L211.90-61.60L211.90-61.60Q212.20-64.60 212.20-65.40L212.20-65.40L212.20-65.40Q212.20-69.60 208.10-71.80L208.10-71.80L208.10-71.80Q204.00-74 197.90-74L197.90-74L197.90-74Q189.30-74 184.75-70.85L184.75-70.85L184.75-70.85Q180.20-67.70 180.20-62L180.20-62L180.20-62Q180.20-58.20 182.55-55.50L182.55-55.50L182.55-55.50Q184.90-52.80 188.40-51L188.40-51L188.40-51Q191.90-49.20 198.20-46.70L198.20-46.70L198.20-46.70Q205.80-43.60 210.40-41.10L210.40-41.10L210.40-41.10Q215.00-38.60 218.25-34.30L218.25-34.30L218.25-34.30Q221.50-30 221.50-23.70L221.50-23.70L221.50-23.70Q221.50-11.90 212.55-5.55L212.55-5.55L212.55-5.55Q203.60 0.80 188.60 0.80L188.60 0.80Z" fill="#dc3545"></path></g></g><style>text {
  font-size: 64px;
  font-family: Arial Black;
  dominant-baseline: central;
  text-anchor: middle;
}</style></svg>